<svg width="34" height="34" viewBox="0 0 34 34" fill="none" xmlns="http://www.w3.org/2000/svg">
<rect x="1" y="1" width="32" height="32" rx="16" stroke="#E9EBED"/>
<g clip-path="url(#clip0_2127_49464)">
<rect x="1" y="1" width="32" height="32" rx="16" fill="#F8F8F8"/>
<g clip-path="url(#clip1_2127_49464)">
<g filter="url(#filter0_f_2127_49464)">
<ellipse cx="16.8154" cy="35.2154" rx="11.8154" ry="11.8154" fill="url(#paint0_radial_2127_49464)"/>
</g>
<g filter="url(#filter1_f_2127_49464)">
<path fill-rule="evenodd" clip-rule="evenodd" d="M14.6073 44.8758C20.8658 44.8758 25.9393 39.8023 25.9393 33.5438C25.9393 30.0669 24.3734 26.9557 21.9084 24.877C25.5637 26.7572 28.064 30.5668 28.064 34.9603C28.064 41.2188 22.9905 46.2923 16.732 46.2923C13.9504 46.2923 11.4029 45.2901 9.43091 43.6272C10.9825 44.4253 12.7423 44.8758 14.6073 44.8758Z" fill="#5F6B7A"/>
</g>
<g filter="url(#filter2_f_2127_49464)">
<ellipse cx="5.90769" cy="5.90769" rx="5.90769" ry="5.90769" transform="matrix(-1 0 0 1 19.0308 25.6154)" fill="#9BA7B6"/>
</g>
<g filter="url(#filter3_f_2127_49464)">
<ellipse cx="2" cy="2" rx="2" ry="2" transform="matrix(-1 0 0 1 13 26.0001)" fill="#B6BEC9"/>
</g>
<g filter="url(#filter4_f_2127_49464)">
<ellipse cx="17" cy="23.9" rx="3" ry="1" fill="#5F6B7A"/>
</g>
</g>
<g filter="url(#filter5_d_2127_49464)">
<g clip-path="url(#clip2_2127_49464)">
<g filter="url(#filter6_f_2127_49464)">
<ellipse cx="17.0001" cy="15.4" rx="6.4" ry="6.4" fill="url(#paint1_radial_2127_49464)"/>
</g>
<g filter="url(#filter7_f_2127_49464)">
<path fill-rule="evenodd" clip-rule="evenodd" d="M15.8039 20.6328C19.1939 20.6328 21.942 17.8846 21.942 14.4946C21.942 12.6113 21.0938 10.926 19.7586 9.80005C21.7386 10.8185 23.0929 12.882 23.0929 15.2619C23.0929 18.6519 20.3448 21.4 16.9548 21.4C15.4481 21.4 14.0682 20.8572 13 19.9564C13.8405 20.3887 14.7937 20.6328 15.8039 20.6328Z" fill="#5F6B7A"/>
</g>
<g filter="url(#filter8_f_2127_49464)">
<ellipse cx="3.2" cy="3.2" rx="3.2" ry="3.2" transform="matrix(-1 0 0 1 18.2002 10.2)" fill="#9BA7B6"/>
</g>
<g filter="url(#filter9_f_2127_49464)">
<ellipse cx="1.6" cy="1.6" rx="1.6" ry="1.6" transform="matrix(-1 0 0 1 15.8 11)" fill="#D1D5DB"/>
</g>
</g>
</g>
</g>
<defs>
<filter id="filter0_f_2127_49464" x="2" y="20.4" width="29.6309" height="29.6307" filterUnits="userSpaceOnUse" color-interpolation-filters="sRGB">
<feFlood flood-opacity="0" result="BackgroundImageFix"/>
<feBlend mode="normal" in="SourceGraphic" in2="BackgroundImageFix" result="shape"/>
<feGaussianBlur stdDeviation="1.5" result="effect1_foregroundBlur_2127_49464"/>
</filter>
<filter id="filter1_f_2127_49464" x="6.43091" y="21.877" width="24.6331" height="27.4154" filterUnits="userSpaceOnUse" color-interpolation-filters="sRGB">
<feFlood flood-opacity="0" result="BackgroundImageFix"/>
<feBlend mode="normal" in="SourceGraphic" in2="BackgroundImageFix" result="shape"/>
<feGaussianBlur stdDeviation="1.5" result="effect1_foregroundBlur_2127_49464"/>
</filter>
<filter id="filter2_f_2127_49464" x="4.21533" y="22.6154" width="17.8154" height="17.8154" filterUnits="userSpaceOnUse" color-interpolation-filters="sRGB">
<feFlood flood-opacity="0" result="BackgroundImageFix"/>
<feBlend mode="normal" in="SourceGraphic" in2="BackgroundImageFix" result="shape"/>
<feGaussianBlur stdDeviation="1.5" result="effect1_foregroundBlur_2127_49464"/>
</filter>
<filter id="filter3_f_2127_49464" x="4" y="21.0001" width="14" height="14" filterUnits="userSpaceOnUse" color-interpolation-filters="sRGB">
<feFlood flood-opacity="0" result="BackgroundImageFix"/>
<feBlend mode="normal" in="SourceGraphic" in2="BackgroundImageFix" result="shape"/>
<feGaussianBlur stdDeviation="2.5" result="effect1_foregroundBlur_2127_49464"/>
</filter>
<filter id="filter4_f_2127_49464" x="11" y="19.9" width="12" height="8" filterUnits="userSpaceOnUse" color-interpolation-filters="sRGB">
<feFlood flood-opacity="0" result="BackgroundImageFix"/>
<feBlend mode="normal" in="SourceGraphic" in2="BackgroundImageFix" result="shape"/>
<feGaussianBlur stdDeviation="1.5" result="effect1_foregroundBlur_2127_49464"/>
</filter>
<filter id="filter5_d_2127_49464" x="7.6001" y="8" width="22.8" height="22.8" filterUnits="userSpaceOnUse" color-interpolation-filters="sRGB">
<feFlood flood-opacity="0" result="BackgroundImageFix"/>
<feColorMatrix in="SourceAlpha" type="matrix" values="0 0 0 0 0 0 0 0 0 0 0 0 0 0 0 0 0 0 127 0" result="hardAlpha"/>
<feOffset dx="2" dy="4"/>
<feGaussianBlur stdDeviation="2.5"/>
<feComposite in2="hardAlpha" operator="out"/>
<feColorMatrix type="matrix" values="0 0 0 0 0 0 0 0 0 0 0 0 0 0 0 0 0 0 0.1 0"/>
<feBlend mode="normal" in2="BackgroundImageFix" result="effect1_dropShadow_2127_49464"/>
<feBlend mode="normal" in="SourceGraphic" in2="effect1_dropShadow_2127_49464" result="shape"/>
</filter>
<filter id="filter6_f_2127_49464" x="7.6001" y="6" width="18.8" height="18.8" filterUnits="userSpaceOnUse" color-interpolation-filters="sRGB">
<feFlood flood-opacity="0" result="BackgroundImageFix"/>
<feBlend mode="normal" in="SourceGraphic" in2="BackgroundImageFix" result="shape"/>
<feGaussianBlur stdDeviation="1.5" result="effect1_foregroundBlur_2127_49464"/>
</filter>
<filter id="filter7_f_2127_49464" x="10" y="6.80005" width="16.093" height="17.6" filterUnits="userSpaceOnUse" color-interpolation-filters="sRGB">
<feFlood flood-opacity="0" result="BackgroundImageFix"/>
<feBlend mode="normal" in="SourceGraphic" in2="BackgroundImageFix" result="shape"/>
<feGaussianBlur stdDeviation="1.5" result="effect1_foregroundBlur_2127_49464"/>
</filter>
<filter id="filter8_f_2127_49464" x="8.80029" y="7.19995" width="12.3999" height="12.4" filterUnits="userSpaceOnUse" color-interpolation-filters="sRGB">
<feFlood flood-opacity="0" result="BackgroundImageFix"/>
<feBlend mode="normal" in="SourceGraphic" in2="BackgroundImageFix" result="shape"/>
<feGaussianBlur stdDeviation="1.5" result="effect1_foregroundBlur_2127_49464"/>
</filter>
<filter id="filter9_f_2127_49464" x="9.6001" y="8" width="9.19995" height="9.19995" filterUnits="userSpaceOnUse" color-interpolation-filters="sRGB">
<feFlood flood-opacity="0" result="BackgroundImageFix"/>
<feBlend mode="normal" in="SourceGraphic" in2="BackgroundImageFix" result="shape"/>
<feGaussianBlur stdDeviation="1.5" result="effect1_foregroundBlur_2127_49464"/>
</filter>
<radialGradient id="paint0_radial_2127_49464" cx="0" cy="0" r="1" gradientUnits="userSpaceOnUse" gradientTransform="translate(5 23.4) rotate(45) scale(33.4189)">
<stop stop-color="#E9EBED"/>
<stop offset="1" stop-color="#414D5C"/>
</radialGradient>
<radialGradient id="paint1_radial_2127_49464" cx="0" cy="0" r="1" gradientUnits="userSpaceOnUse" gradientTransform="translate(10.6001 9) rotate(45) scale(18.1019)">
<stop stop-color="#E9EBED"/>
<stop offset="1" stop-color="#414D5C"/>
</radialGradient>
<clipPath id="clip0_2127_49464">
<rect x="1" y="1" width="32" height="32" rx="16" fill="white"/>
</clipPath>
<clipPath id="clip1_2127_49464">
<rect x="5" y="23.4" width="23.6308" height="23.6308" rx="11.8154" fill="white"/>
</clipPath>
<clipPath id="clip2_2127_49464">
<rect x="10.6001" y="9" width="12.8" height="12.8" rx="6.4" fill="white"/>
</clipPath>
</defs>
</svg>
